# xmcd
#
# Track frame offsets: 
#        150
#        12832
#        29947
#        47942
#        62284
#        79376
#        94870
#        112293
#        128155
#        145925
#        166144
#        188225
#
# Disc length: 2726 seconds
#
# Revision: 0
# Processed by: cddbd v1.5.2PL0 Copyright (c) Steve Scherf et al.
# Submitted via: ExactAudioCopy v0.95b4
#
DISCID=aa0aa40c
DTITLE=Leaving, Tx. - Anywhere On Good Roads
DYEAR=2007
DGENRE=Country Rock
TTITLE0=State of Mental Health
TTITLE1=Be My Guide
TTITLE2=Father's Son
TTITLE3=Masquerade
TTITLE4=Whiskey
TTITLE5=Hard Luck Story
TTITLE6=Drinkin' Again
TTITLE7=One More Seven
TTITLE8=Lies
TTITLE9=Next of Kin
TTITLE10=Winter
TTITLE11=For Years
EXTD=
EXTT0=
EXTT1=
EXTT2=
EXTT3=
EXTT4=
EXTT5=
EXTT6=
EXTT7=
EXTT8=
EXTT9=
EXTT10=
EXTT11=
PLAYORDER=
